<?xml version="1.0" encoding="utf-8"?>
<!-- Generator: Adobe Illustrator 21.1.0, SVG Export Plug-In . SVG Version: 6.00 Build 0)  -->
<svg version="1.1" id="Layer_1" xmlns="http://www.w3.org/2000/svg" xmlns:xlink="http://www.w3.org/1999/xlink" x="0px" y="0px"
	 viewBox="0 0 290.7 290.7" style="enable-background:new 0 0 290.7 290.7;" xml:space="preserve">
<style type="text/css">
	.st0{opacity:0.75;}
	.st1{fill:#414141;}
	.st2{fill:#DD9626;}
</style>
<g>
	<g>
		<g class="st0">
			<g>
				<path class="st1" d="M145.4,290.7c80.3,0,145.4-65.1,145.4-145.3S225.6,0,145.4,0S0,65.1,0,145.3S65.1,290.7,145.4,290.7"/>
			</g>
		</g>
		<path class="st2" d="M195.7,119.4c-4-7.7-9.8-14.5-16.7-19.7c-1-0.8-2.5-0.5-3.2,0.5c-0.8,1-0.5,2.5,0.5,3.2
			c6.4,4.7,11.7,11,15.4,18.1c3.8,7.4,5.8,15.4,5.8,23.8c0,28.7-23.4,52.1-52.1,52.1c-28.7,0-52.1-23.3-52.1-52.1
			s23.3-52.1,52.1-52.1c1.3,0,2.3-1,2.3-2.3c0-1.3-1-2.3-2.3-2.3c-31.2,0-56.7,25.4-56.7,56.7s25.4,56.7,56.7,56.7
			s56.7-25.4,56.7-56.7C202,136.3,199.8,127.4,195.7,119.4"/>
		<path class="st2" d="M130.8,119c-0.7,0.4-1.2,1.2-1.2,2v50.6c0,1.3,1,2.3,2.3,2.3c1.3,0,2.3-1,2.3-2.3v-46.6l34.1,20.3l-25.1,16.2
			c-1.1,0.7-1.4,2.1-0.7,3.2c0.7,1.1,2.1,1.4,3.2,0.7l28.2-18.2c0.7-0.4,1.1-1.2,1.1-2c0-0.8-0.4-1.5-1.1-1.9l-40.8-24.3
			C132.5,118.6,131.6,118.6,130.8,119"/>
	</g>
</g>
</svg>
