<?xml version="1.0" encoding="utf-8"?>
<!-- Generator: Adobe Illustrator 21.1.0, SVG Export Plug-In . SVG Version: 6.00 Build 0)  -->
<svg version="1.1" id="Layer_1" xmlns="http://www.w3.org/2000/svg" xmlns:xlink="http://www.w3.org/1999/xlink" x="0px" y="0px"
	 viewBox="0 0 52.7 52.7" style="enable-background:new 0 0 52.7 52.7;" xml:space="preserve">
<style type="text/css">
	.st0{fill:#DD9521;}
</style>
<g>
	<path class="st0" d="M2.9,14.3c1.8-3.6,4.5-6.7,7.8-9.1c0.4-0.3,0.9-0.4,1.4-0.3c0.5,0.1,0.9,0.3,1.2,0.7c0.3,0.4,0.4,0.9,0.3,1.4
		c-0.1,0.5-0.3,0.9-0.7,1.2c-2.8,2.1-5.1,4.8-6.7,7.9c-1.7,3.2-2.5,6.7-2.5,10.4C3.7,38.9,13.9,49,26.4,49C38.9,49,49,38.9,49,26.4
		C49,13.9,38.9,3.7,26.4,3.7c-1,0-1.8-0.8-1.8-1.8S25.3,0,26.4,0c14.5,0,26.4,11.8,26.4,26.4c0,14.5-11.8,26.4-26.4,26.4
		C11.8,52.7,0,40.9,0,26.4C0,22.2,1,18,2.9,14.3z"/>
	<path class="st0" d="M23.6,36.6c-0.3,0.3-0.7,0.4-1,0.4s-0.7-0.1-1-0.4c-0.6-0.6-0.6-1.5,0-2l8.2-8.2l-8.2-8.2
		c-0.6-0.6-0.6-1.5,0-2c0.6-0.6,1.5-0.6,2,0l10.3,10.3L23.6,36.6z"/>
</g>
</svg>
