<?xml version="1.0" encoding="utf-8"?>
<!-- Generator: Adobe Illustrator 21.1.0, SVG Export Plug-In . SVG Version: 6.00 Build 0)  -->
<svg version="1.1" id="Layer_1" xmlns="http://www.w3.org/2000/svg" xmlns:xlink="http://www.w3.org/1999/xlink" x="0px" y="0px"
	 viewBox="0 0 176.1 108.2" style="enable-background:new 0 0 176.1 108.2;" xml:space="preserve">
<style type="text/css">
	.st0{fill:#FFFFFF;}
</style>
<g>
	<path class="st0" d="M141.3,58.4l11-1.4v-7.1c0-1.2,0.4-2.6,1.9-2.8c1.5-0.2,2,1.1,2,2.3v2c0,10.7-14.9,7.9-14.9,20.3v10.7
		c0,5.6,1.8,8.7,7.4,8c3.2-0.4,5.9-2.4,7.4-6.6l0.2,0l0.6,4.9l11.2-1.4c-0.3-3.3-0.8-6.5-0.8-9.9V48.4c0-7.4-6.1-10.4-13-9.5
		c-7,0.9-12.9,5.4-12.9,12.8V58.4z M152.3,70.1c0-2.2,0.3-2.6,1.9-4.1l2-1.6v14.3c0,1.2-0.5,2.7-2,2.9c-1.5,0.2-1.9-1.1-1.9-2.3
		V70.1z M135.3,32.9l-11,1.4v9l-2.9,0.4v8.1l2.9-0.4v31.3c0,7.6,1.4,9.9,9.3,8.9l4.9-0.6v-8.1l-1.3,0.2c-1.6,0.2-1.9-1.6-1.9-3.1V50
		l3-0.4v-8.1l-3,0.4V32.9z M103.8,95.4V69.3l0.2,0l4.4,25.5l11.3-1.4l-5.2-27.6l5.4-22l-11.4,1.4L104,68.1l-0.2,0V33.8l-11,1.4v61.7
		L103.8,95.4z M88.7,77.7l-11,1.4v9.5c0,1.2-0.5,2.7-2,2.9c-1.5,0.2-1.9-1.1-1.9-2.4V59.8c0-1.2,0.4-2.6,1.9-2.8
		c1.5-0.2,2,1.1,2,2.3v7.1l11-1.4v-6.7c0-7.5-6.1-10.4-13-9.5c-7,0.9-12.9,5.4-12.9,12.8V90c0,7.4,5.9,10.4,12.9,9.5
		c6.9-0.9,13-5.4,13-12.8V77.7z M47.8,92.4c0,1.2-0.5,2.7-2,2.8c-1.5,0.2-1.9-1.2-1.9-2.4V63.6c0-1.2,0.4-2.7,1.9-2.8
		c1.5-0.2,2,1.1,2,2.3V92.4z M58.8,62.2c0-7.4-6.1-10.4-13-9.5c-7,0.9-12.9,5.4-12.9,12.8v28.4c0,7.4,5.9,10.4,12.9,9.5
		c6.9-0.9,13-5.4,13-12.8V62.2z M16.5,82.2v12.2c0,1.7-0.3,4.1-2.2,4.4c-1.9,0.2-2.2-2.1-2.2-3.8V57.4c0-1.7,0.3-4.1,2.2-4.3
		c1.9-0.2,2.2,2.1,2.2,3.8v9.7L28.7,65V53.3c0-8.2-6.8-10.4-14.4-9.4C6.8,44.8,0,48.7,0,57v41.6c0,8.2,6.8,10.4,14.4,9.4
		c7.5-1,14.4-4.8,14.4-13.1V80.7L16.5,82.2z"/>
	<path class="st0" d="M173.6,38.1c-1.4,0-2.5,1-2.5,2.5c0,1.4,1.1,2.5,2.5,2.5c1.4,0,2.5-1.1,2.5-2.5
		C176.1,39.2,175,38.1,173.6,38.1 M173.6,38.5c1.2,0,2.1,0.9,2.1,2.1c0,1.2-1,2.2-2.1,2.2c-1.2,0-2.1-1-2.1-2.2
		C171.5,39.4,172.4,38.5,173.6,38.5 M172.6,39.2V42h0.5v-1.2h0h0.2h0.2h0.1l0.6,1.2h0.5l-0.6-1.3c0.4-0.1,0.6-0.4,0.6-0.7
		c0-0.3-0.2-0.6-0.5-0.7c-0.2-0.1-0.3-0.1-0.7-0.1H172.6z M173.1,40.4v-0.9h0.3c0.2,0,0.3,0,0.5,0c0.2,0,0.3,0.2,0.3,0.4
		c0,0.2-0.1,0.3-0.2,0.4c-0.1,0-0.2,0.1-0.5,0.1H173.1z"/>
</g>
<g>
	<path class="st0" d="M1.8,0h11.4v3H5.1v3.2h7.1v3H5.1V15H1.8V0z"/>
	<path class="st0" d="M15.6,8.6V0h3.3v8.5c0,2.4,1.2,3.7,3.2,3.7c2,0,3.2-1.2,3.2-3.6V0h3.3v8.4c0,4.5-2.5,6.8-6.6,6.8
		S15.6,13,15.6,8.6z"/>
	<path class="st0" d="M32,0h11.3v2.9h-8v3h7.1v2.9h-7.1V12h8.1V15H32V0z"/>
	<path class="st0" d="M46.3,0h3.3v12h7.5v3H46.3V0z"/>
	<path class="st0" d="M59.5,0h11.3v2.9h-8v3h7.1v2.9h-7.1V12h8.1V15H59.5V0z"/>
	<path class="st0" d="M73.9,0h5.8c4.7,0,8,3.2,8,7.4v0c0,4.2-3.2,7.5-8,7.5h-5.8V0z M77.1,3v9h2.5c2.7,0,4.5-1.8,4.5-4.5v0
		c0-2.7-1.8-4.5-4.5-4.5H77.1z"/>
	<path class="st0" d="M97,0h6.9c1.7,0,3.1,0.5,3.9,1.3c0.7,0.7,1,1.5,1,2.5v0c0,1.7-0.9,2.6-2,3.2c1.7,0.7,2.8,1.7,2.8,3.7v0
		c0,2.7-2.2,4.1-5.6,4.1H97V0z M105.6,4.4c0-1-0.8-1.5-2.2-1.5h-3.2V6h3C104.7,6,105.6,5.6,105.6,4.4L105.6,4.4z M104,8.8h-3.8v3.3
		h3.9c1.5,0,2.3-0.5,2.3-1.6v0C106.4,9.4,105.7,8.8,104,8.8z"/>
	<path class="st0" d="M116,9.1L110.2,0h3.8l3.6,6l3.6-6h3.7l-5.8,9v6H116V9.1z"/>
</g>
</svg>
