<?xml version="1.0" encoding="utf-8"?>
<!-- Generator: Adobe Illustrator 21.1.0, SVG Export Plug-In . SVG Version: 6.00 Build 0)  -->
<svg version="1.1" id="Layer_1" xmlns="http://www.w3.org/2000/svg" xmlns:xlink="http://www.w3.org/1999/xlink" x="0px" y="0px"
	 viewBox="0 0 52.7 52.7" style="enable-background:new 0 0 52.7 52.7;" xml:space="preserve">
<style type="text/css">
	.st0{fill:#F7F7F7;}
</style>
<g>
	<path class="st0" d="M49.8,14.3c-1.8-3.6-4.5-6.7-7.8-9.1c-0.4-0.3-0.9-0.4-1.4-0.3c-0.5,0.1-0.9,0.3-1.2,0.7
		c-0.3,0.4-0.4,0.9-0.3,1.4c0.1,0.5,0.3,0.9,0.7,1.2c2.8,2.1,5.1,4.8,6.7,7.9c1.7,3.2,2.5,6.7,2.5,10.4C49,38.9,38.9,49,26.4,49
		C13.9,49,3.7,38.9,3.7,26.4c0-12.5,10.2-22.7,22.7-22.7c1,0,1.8-0.8,1.8-1.8S27.4,0,26.4,0C11.8,0,0,11.8,0,26.4
		c0,14.5,11.8,26.4,26.4,26.4c14.5,0,26.4-11.8,26.4-26.4C52.7,22.2,51.7,18,49.8,14.3z"/>
	<path class="st0" d="M29.1,36.6c0.3,0.3,0.7,0.4,1,0.4s0.7-0.1,1-0.4c0.6-0.6,0.6-1.5,0-2L23,26.4l8.2-8.2c0.6-0.6,0.6-1.5,0-2
		c-0.6-0.6-1.5-0.6-2,0L18.9,26.4L29.1,36.6z"/>
</g>
</svg>
