<?xml version="1.0" encoding="utf-8"?>
<!-- Generator: Adobe Illustrator 21.1.0, SVG Export Plug-In . SVG Version: 6.00 Build 0)  -->
<svg version="1.1" id="Layer_1" xmlns="http://www.w3.org/2000/svg" xmlns:xlink="http://www.w3.org/1999/xlink" x="0px" y="0px"
	 viewBox="0 0 281.6 281.6" style="enable-background:new 0 0 281.6 281.6;" xml:space="preserve">
<style type="text/css">
	.st0{fill:none;}
	.st1{fill:#DD9627;}
	.st2{fill:url(#SVGID_1_);}
	.st3{fill:#FFFFFF;}
</style>
<pattern  x="-280" y="-156.6" width="12.3" height="12.3" patternUnits="userSpaceOnUse" id="Unnamed_Pattern" viewBox="0 -12.3 12.3 12.3" style="overflow:visible;">
	<g>
		<rect y="-12.3" class="st0" width="12.3" height="12.3"/>
		<rect y="-12.3" class="st1" width="12.3" height="12.3"/>
	</g>
</pattern>
<polygon points="140.8,0 118.4,36.1 83.2,12.3 77.3,54.5 35.6,47.1 47.3,88.1 6.2,98.4 33.4,131 0,157.3 38.1,175.9 18.2,213.6 
	60.5,215.1 57.6,257.6 96.9,241.6 111.4,281.6 140.8,251 170.3,281.6 184.8,241.6 224.1,257.6 221.1,215.1 263.5,213.6 243.6,175.9 
	281.6,157.3 248.3,131 275.5,98.4 234.4,88.1 246.1,47.1 204.3,54.5 198.4,12.3 163.3,36.1 "/>
<pattern  id="SVGID_1_" xlink:href="#Unnamed_Pattern" patternTransform="matrix(5.3169 0 0 -4.8736 30207.543 34024.3945)">
</pattern>
<path class="st2" d="M140.8,15.4l20,32.2l31.3-21.2l5.3,37.6l37.2-6.6L224.2,94l36.6,9.2l-24.3,29.1l29.8,23.4l-33.9,16.7l17.7,33.5
	l-37.8,1.3l2.6,37.9l-35-14.2l-12.9,35.7l-26.2-27.3l-26.2,27.3l-12.9-35.7l-35,14.2l2.6-37.9l-37.8-1.3l17.7-33.5l-33.9-16.7
	L45,132.3l-24.3-29.1L57.4,94L47,57.4L84.2,64l5.3-37.6l31.3,21.2L140.8,15.4z M140.8,0l-22.5,36.1L83.2,12.3l-5.9,42.2l-41.7-7.4
	l11.7,41L6.2,98.4L33.4,131L0,157.3l38.1,18.7l-19.9,37.6l42.3,1.5l-2.9,42.5l39.3-15.9l14.5,40l29.4-30.6l29.4,30.6l14.5-40
	l39.3,15.9l-2.9-42.5l42.3-1.5l-19.9-37.6l38.1-18.7L248.3,131l27.2-32.6l-41.1-10.3l11.7-41l-41.7,7.4l-5.9-42.2l-35.1,23.8
	L140.8,0z"/>
<polygon class="st3" points="89,96.6 78.6,99.3 80.4,106.5 86.4,105.2 86.4,130 96.2,130 96.2,96.6 "/>
<g>
	<path class="st3" d="M122.5,113.5L122.5,113.5c0-5.4-2.7-9.2-6.6-9.2c-3.9,0-6.5,3.7-6.5,9v0.1c0,5.3,2.6,9.1,6.6,9.1
		C120,122.6,122.5,118.8,122.5,113.5 M99.5,113.5L99.5,113.5c0-9.5,6.4-17.4,16.5-17.4c10.1,0,16.4,7.8,16.4,17.2v0.1
		c0,9.4-6.4,17.3-16.5,17.3C105.7,130.7,99.5,122.9,99.5,113.5"/>
	<path class="st3" d="M132.3,123.1l13.3-9.5c3.4-2.4,4.6-4,4.6-6c0-2.1-1.6-3.4-4-3.4c-2.4,0-4.3,1.3-7.1,4.3l-6.7-5.2
		c3.8-4.6,7.6-7.1,14.5-7.1c7.8,0,13.1,4.3,13.1,10.6v0.1c0,5.3-2.9,8.1-8.2,11.6l-6.1,4h14.7v7.5h-28.2V123.1z"/>
	<path class="st3" d="M173.5,125.4l5.6-6.2c2.9,2.3,5.6,3.6,8.6,3.6c3.3,0,5.2-1.5,5.2-3.9v-0.1c0-2.4-2.1-3.8-5.2-3.8
		c-2.2,0-4,0.7-5.7,1.7l-5.8-3l1-16.8H201v7.6h-16l-0.3,5c1.6-0.7,3.3-1.2,5.7-1.2c6.4,0,12.2,3.3,12.2,10.5v0.1
		c0,7.4-6.1,11.8-14.7,11.8C181.6,130.7,177.2,128.7,173.5,125.4"/>
	<polygon class="st3" points="89.2,142.4 84.6,135.5 88.4,135.5 90.9,139.6 93.4,135.5 97.2,135.5 92.6,142.4 92.6,146.6 
		89.2,146.6 	"/>
	<path class="st3" d="M103,142.2l-1.4-3.1l-1.4,3.1H103z M100.1,135.4h3.2l5.2,11.2h-3.6l-0.9-2h-4.7l-0.9,2h-3.5L100.1,135.4z"/>
	<polygon class="st3" points="109.5,135.5 113,135.5 115.9,139.8 118.8,135.5 122.4,135.5 122.4,146.6 119.1,146.6 119.1,140.2 
		115.9,144.6 115.9,144.6 112.8,140.3 112.8,146.6 109.5,146.6 	"/>
	<polygon class="st3" points="124.4,135.5 127.9,135.5 130.8,139.8 133.7,135.5 137.3,135.5 137.3,146.6 133.9,146.6 133.9,140.2 
		130.8,144.6 130.8,144.6 127.7,140.3 127.7,146.6 124.4,146.6 	"/>
	<path class="st3" d="M146.1,142.2l-1.4-3.1l-1.4,3.1H146.1z M143.2,135.4h3.2l5.2,11.2H148l-0.9-2h-4.7l-0.9,2H138L143.2,135.4z"/>
	<polygon class="st3" points="153.5,138.2 149.8,138.2 149.8,135.5 160.5,135.5 160.5,138.2 156.9,138.2 156.9,146.6 153.5,146.6 	
		"/>
	<polygon class="st3" points="177.4,135.6 187.1,135.6 187.1,138.3 180.7,138.3 180.7,140.1 186.5,140.1 186.5,142.7 180.7,142.7 
		180.7,146.6 177.4,146.6 	"/>
	<polygon class="st3" points="188.4,135.6 191.9,135.6 194.8,139.8 197.7,135.6 201.2,135.6 201.2,146.6 197.9,146.6 197.9,140.3 
		194.8,144.6 194.7,144.6 191.7,140.3 191.7,146.6 188.4,146.6 	"/>
	<rect x="165.7" y="97" class="st3" width="4.5" height="87.3"/>
	<path class="st3" d="M80.5,177.5l12.3-9.4c3.1-2.4,4.3-4,4.3-5.9c0-2.1-1.5-3.4-3.7-3.4c-2.2,0-4,1.3-6.5,4.3l-6.2-5.1
		c3.5-4.6,7.1-7.1,13.4-7.1c7.2,0,12.2,4.3,12.2,10.5v0.1c0,5.3-2.7,8-7.6,11.5l-5.7,4h13.6v7.4H80.5V177.5z"/>
	<path class="st3" d="M131.6,168L131.6,168c0-5.4-2.4-9.2-6.1-9.2c-3.6,0-6,3.7-6,9v0.1c0,5.3,2.4,9,6.1,9
		C129.3,176.9,131.6,173.2,131.6,168 M110.3,168L110.3,168c0-9.4,5.9-17.2,15.3-17.2c9.4,0,15.2,7.7,15.2,17.1v0.1
		c0,9.3-5.9,17.1-15.3,17.1C116.1,185,110.3,177.3,110.3,168"/>
	<polygon class="st3" points="152.1,151.1 142.4,153.9 144.2,160.9 149.7,159.6 149.7,184.3 158.7,184.3 158.7,151.1 	"/>
	<path class="st3" d="M192.1,161.1L192.1,161.1c0-1.9-1.6-3.6-4.1-3.6c-2.5,0-4.1,1.6-4.1,3.5v0.1c0,2.1,1.6,3.6,4.1,3.6
		C190.4,164.7,192.1,163.2,192.1,161.1 M192.8,174.4L192.8,174.4c0-2.3-1.9-3.7-4.8-3.7c-2.8,0-4.8,1.5-4.8,3.6v0.1
		c0,2,1.7,3.7,4.8,3.7C191.1,178.1,192.8,176.3,192.8,174.4 M174.5,174.4L174.5,174.4c0-4.1,2.1-5.7,5.6-7.2
		c-2.5-1.4-4.5-3.6-4.5-7.2v-0.1c0-5.2,5-9.1,12.4-9.1c7.4,0,12.4,3.9,12.4,9.1v0.1c0,3.6-2,5.8-4.5,7.2c3.3,1.6,5.7,3.8,5.7,7.8
		v0.1c0,5.9-5.7,9.8-13.6,9.8C180.1,184.9,174.5,180.2,174.5,174.4"/>
</g>
</svg>
